<svg id="Layer_1" data-name="Layer 1" xmlns="http://www.w3.org/2000/svg" viewBox="0 0 3623 3622.93"><title>a</title><polygon points="1434.89 39.97 1350.77 57.85 1760.48 1571.75 1519.01 22.09 1434.89 39.97"/><polygon points="2717.27 3380.69 2791.75 3337.69 1934.27 2024.49 2642.8 3423.69 2717.27 3380.69"/><polygon points="345.99 747.11 295.44 816.69 1612.91 1667.58 396.54 677.54 345.99 747.11"/><polygon points="3534.36 2371.67 3560.94 2289.88 2045.01 1887.75 3507.79 2453.46 3534.36 2371.67"/><polygon points="3613.1 2001.24 3622.09 1915.71 2055.68 1837.55 3604.11 2086.77 3613.1 2001.24"/><polygon points="0.02 1811.88 0.02 1897.88 1566.02 1811.88 0.02 1725.88 0.02 1811.88"/><polygon points="3583.44 1435.25 3565.56 1351.13 2051.66 1760.84 3601.32 1519.37 3583.44 1435.25"/><polygon points="465.32 3024.02 522.86 3087.93 1629.08 1976.16 407.77 2960.11 465.32 3024.02"/><polygon points="2717.27 243.08 2642.8 200.08 1934.27 1599.28 2791.75 286.08 2717.27 243.08"/><polygon points="1251.74 3534.72 1333.53 3561.3 1735.66 2045.37 1169.95 3508.15 1251.74 3534.72"/><polygon points="2371.31 89.05 2289.52 62.47 1887.39 1578.4 2453.1 115.62 2371.31 89.05"/><polygon points="1622.17 3613.46 1707.7 3622.45 1785.86 2056.04 1536.64 3604.47 1622.17 3613.46"/></svg>