<svg id="Layer_1" data-name="Layer 1" xmlns="http://www.w3.org/2000/svg" viewBox="0 0 3623 3622.93"><title>a</title><polygon points="1251.74 89.05 1169.95 115.62 1735.66 1578.4 1333.53 62.47 1251.74 89.05"/><polygon points="2548.33 3466.77 2626.89 3431.79 1911.38 2036.16 2469.76 3501.75 2548.33 3466.77"/><polygon points="746.75 346.35 677.18 396.9 1667.22 1613.27 816.33 295.8 746.75 346.35"/><polygon points="3157.73 3024.02 3215.28 2960.11 1993.97 1976.16 3100.19 3087.93 3157.73 3024.02"/><polygon points="242.72 906.13 199.72 980.61 1598.91 1689.13 285.72 831.66 242.72 906.13"/><polygon points="3583.44 2188.52 3601.32 2104.4 2051.66 1862.93 3565.56 2272.64 3583.44 2188.52"/><polygon points="9.95 1622.53 0.96 1708.06 1567.37 1786.22 18.94 1537 9.95 1622.53"/><polygon points="3534.36 1252.1 3507.79 1170.31 2045.01 1736.02 3560.94 1333.89 3534.36 1252.1"/><polygon points="156.64 2548.69 191.62 2627.25 1587.25 1911.74 121.66 2470.12 156.64 2548.69"/><polygon points="345.99 2876.66 396.54 2946.23 1612.91 1956.19 295.44 2807.08 345.99 2876.66"/><polygon points="3023.66 465.68 2959.74 408.13 1975.8 1629.44 3087.57 523.22 3023.66 465.68"/><polygon points="2188.16 39.97 2104.04 22.09 1862.57 1571.75 2272.28 57.85 2188.16 39.97"/></svg>