<svg id="Layer_1" data-name="Layer 1" xmlns="http://www.w3.org/2000/svg" viewBox="0 0 3623 3622.93"><title>a</title><polygon points="1811.52 0.39 1725.52 0.39 1811.52 1566.38 1897.52 0.39 1811.52 0.39"/><polygon points="1811.52 3623.39 1897.52 3623.39 1811.52 2057.39 1725.52 3623.39 1811.52 3623.39"/><polygon points="2371.31 3534.72 2453.1 3508.15 1887.39 2045.37 2289.52 3561.3 2371.31 3534.72"/><polygon points="3023.66 3158.09 3087.57 3100.55 1975.8 1994.33 2959.74 3215.64 3023.66 3158.09"/><polygon points="465.32 599.75 407.77 663.67 1629.08 1647.61 522.86 535.85 465.32 599.75"/><polygon points="3466.41 2548.69 3501.39 2470.12 2035.8 1911.74 3431.43 2627.25 3466.41 2548.69"/><polygon points="88.69 1252.1 62.11 1333.89 1578.04 1736.02 115.26 1170.31 88.69 1252.1"/><polygon points="3613.1 1622.53 3604.11 1537 2055.68 1786.22 3622.09 1708.06 3613.1 1622.53"/><polygon points="39.61 2188.52 57.49 2272.64 1571.39 1862.93 21.73 2104.4 39.61 2188.52"/><polygon points="3157.73 599.75 3100.19 535.85 1993.97 1647.61 3215.28 663.67 3157.73 599.75"/><polygon points="905.77 3380.69 980.25 3423.69 1688.77 2024.49 831.3 3337.69 905.77 3380.69"/></svg>