<svg id="Layer_1" data-name="Layer 1" xmlns="http://www.w3.org/2000/svg" viewBox="0 0 3623 3622.93"><title>a</title><polygon points="1622.17 10.31 1536.64 19.3 1785.86 1567.73 1707.7 1.32 1622.17 10.31"/><polygon points="2000.88 3613.46 2086.41 3604.47 1837.19 2056.04 1915.35 3622.45 2000.88 3613.46"/><polygon points="3277.06 2876.66 3327.61 2807.08 2010.14 1956.19 3226.51 2946.23 3277.06 2876.66"/><polygon points="39.61 1435.25 21.73 1519.37 1571.39 1760.84 57.49 1351.13 39.61 1435.25"/><polygon points="9.95 2001.24 18.94 2086.77 1567.37 1837.55 0.96 1915.71 9.95 2001.24"/><polygon points="3380.33 906.13 3337.33 831.66 2024.13 1689.13 3423.33 980.61 3380.33 906.13"/><polygon points="599.39 3158.09 663.3 3215.64 1647.25 1994.33 535.48 3100.55 599.39 3158.09"/><polygon points="2876.3 346.35 2806.72 295.8 1955.83 1613.27 2945.87 396.9 2876.3 346.35"/><polygon points="599.39 465.68 535.48 523.22 1647.25 1629.44 663.3 408.13 599.39 465.68"/></svg>