<svg id="Layer_1" data-name="Layer 1" xmlns="http://www.w3.org/2000/svg" viewBox="0 0 3623 3622.93"><title>a</title><polygon points="905.77 243.08 831.3 286.08 1688.77 1599.28 980.25 200.08 905.77 243.08"/><polygon points="3380.33 2717.64 3423.33 2643.16 2024.13 1934.63 3337.33 2792.11 3380.33 2717.64"/><polygon points="88.69 2371.67 115.26 2453.46 1578.04 1887.75 62.11 2289.88 88.69 2371.67"/><polygon points="3466.41 1075.08 3431.43 996.52 2035.8 1712.03 3501.39 1153.65 3466.41 1075.08"/><polygon points="746.75 3277.42 816.33 3327.97 1667.22 2010.5 677.18 3226.87 746.75 3277.42"/><polygon points="1434.89 3583.8 1519.01 3601.68 1760.48 2052.02 1350.77 3565.92 1434.89 3583.8"/><polygon points="2000.88 10.31 1915.35 1.32 1837.19 1567.73 2086.41 19.3 2000.88 10.31"/></svg>