<svg id="Layer_1" data-name="Layer 1" xmlns="http://www.w3.org/2000/svg" viewBox="0 0 3623 3622.93"><title>a</title><polygon points="2188.16 3583.8 2272.28 3565.92 1862.57 2052.02 2104.04 3601.68 2188.16 3583.8"/><polygon points="1074.72 157 996.16 191.98 1711.67 1587.61 1153.29 122.02 1074.72 157"/><polygon points="2876.3 3277.42 2945.87 3226.87 1955.83 2010.5 2806.72 3327.97 2876.3 3277.42"/><polygon points="156.64 1075.08 121.66 1153.65 1587.25 1712.03 191.62 996.52 156.64 1075.08"/><polygon points="3623.02 1811.88 3623.02 1725.88 2057.02 1811.88 3623.02 1897.88 3623.02 1811.88"/><polygon points="242.72 2717.64 285.72 2792.11 1598.91 1934.63 199.72 2643.16 242.72 2717.64"/><polygon points="3277.06 747.11 3226.51 677.54 2010.14 1667.58 3327.61 816.69 3277.06 747.11"/><polygon points="1074.72 3466.77 1153.29 3501.75 1711.67 2036.16 996.16 3431.79 1074.72 3466.77"/><polygon points="2548.33 157 2469.76 122.02 1911.38 1587.61 2626.89 191.98 2548.33 157"/></svg>